<svg xmlns="http://www.w3.org/2000/svg" width="30" height="30" viewBox="0 0 30 30">
<g id="Group_23742" data-name="Group 23742" transform="translate(2044 3467)">
<rect id="Rectangle_17194" data-name="Rectangle 17194" width="30" height="30" transform="translate(-2044 -3467)" fill="none"></rect>
<g id="Group_23741" data-name="Group 23741" transform="translate(310 759)">
<path id="Path_26908" data-name="Path 26908" d="M4.355,30a12.083,12.083,0,0,1-1.6-.517A4.905,4.905,0,0,1,.029,24.5c.146-1.377.228-2.761.339-4.142Q.532,18.313.7,16.271c.106-1.332.206-2.665.316-4,.129-1.555.227-3.114.413-4.662a2,2,0,0,1,2-1.687c.782-.012,1.565,0,2.348,0h.336A5.77,5.77,0,0,1,8.275,1.3,5.615,5.615,0,0,1,12.367.018a5.841,5.841,0,0,1,5.38,5.9h.278c.753,0,1.507,0,2.26,0A2.116,2.116,0,0,1,22.5,7.986c.165,2.091.343,4.181.509,6.272s.322,4.183.488,6.273c.107,1.352.222,2.7.335,4.054a4.9,4.9,0,0,1-4.195,5.362A.61.61,0,0,0,19.5,30ZM6.118,7.678c-.893,0-1.743-.005-2.593,0-.282,0-.383.141-.407.463q-.151,1.97-.307,3.939Q2.559,15.2,2.3,18.325c-.156,1.935-.319,3.869-.455,5.806a6.248,6.248,0,0,0,.028,1.685,3.078,3.078,0,0,0,3.166,2.427q6.882,0,13.764,0c.088,0,.176,0,.264-.006a3.145,3.145,0,0,0,2.986-3.544c-.117-1.076-.177-2.158-.262-3.238-.105-1.342-.208-2.684-.315-4.026-.128-1.6-.261-3.209-.389-4.813q-.181-2.275-.357-4.551a.36.36,0,0,0-.365-.381c-.868-.009-1.735,0-2.63,0,0,.123,0,.218,0,.313,0,.615.006,1.23,0,1.845a.878.878,0,1,1-1.755-.006c-.006-.71,0-1.419,0-2.134h-8.1c0,.693,0,1.365,0,2.038a1.312,1.312,0,0,1-.034.347A.877.877,0,0,1,6.12,9.847c-.008-.711,0-1.422,0-2.168M7.894,5.9h8.069a4.036,4.036,0,1,0-8.069,0" transform="translate(-2351 -4226)" fill="#2E294E"></path>
<path id="Path_26909" data-name="Path 26909" d="M156.63,290.4H153.2v-3.431a.872.872,0,1,0-1.744,0V290.4h-3.431a.872.872,0,1,0,0,1.744h3.431v3.431a.872.872,0,0,0,1.744,0v-3.431h3.431a.872.872,0,0,0,0-1.744" transform="translate(-2491.298 -4498.774)" fill="#2E294E"></path>
</g>
</g>
</svg>