<svg id="Group_31" data-name="Group 31" xmlns="http://www.w3.org/2000/svg" width="32" height="32" viewBox="0 0 32 32">
<path id="Path_78" data-name="Path 78" d="M2,25.723a1,1,0,0,0,.629.928L16,32l3.361-1.344a.5.5,0,0,0-.186-.965.491.491,0,0,0-.185.036L16,30.923l-13-5.2v-11.6a4.428,4.428,0,0,1-1-.2Z" fill="#2E294E"></path>
<path id="Path_79" data-name="Path 79" d="M19.681,24.189a.5.5,0,0,0-.5-.5.493.493,0,0,0-.186.036l-3,1.2L7.432,21.5a.5.5,0,0,0-.65.278.512.512,0,0,0-.035.186.5.5,0,0,0,.314.464L16,26l3.367-1.347a.5.5,0,0,0,.314-.464" fill="#2E294E"></path>
<path id="Path_80" data-name="Path 80" d="M31.5,25.126h-.087a1.368,1.368,0,0,1-.967-2.336l.061-.061a.5.5,0,0,0,0-.707l-.265-.265-.264-.264a.5.5,0,0,0-.707,0l-.061.06a1.368,1.368,0,0,1-2.336-.967V20.5a.5.5,0,0,0-.5-.5h-.748a.5.5,0,0,0-.5.5v.086a1.368,1.368,0,0,1-2.336.967l-.061-.06a.5.5,0,0,0-.707,0l-.265.264-.265.265a.5.5,0,0,0,0,.707l.061.061a1.368,1.368,0,0,1-.967,2.336H20.5a.5.5,0,0,0-.5.5v.748a.5.5,0,0,0,.5.5h.086a1.368,1.368,0,0,1,.967,2.336l-.061.061a.5.5,0,0,0,0,.707l.265.264.265.265a.5.5,0,0,0,.707,0l.061-.061a1.368,1.368,0,0,1,2.336.968V31.5a.5.5,0,0,0,.5.5h.748a.5.5,0,0,0,.5-.5v-.086a1.368,1.368,0,0,1,2.336-.968l.061.061a.5.5,0,0,0,.707,0l.264-.265.265-.264a.5.5,0,0,0,0-.707l-.061-.061a1.368,1.368,0,0,1,.967-2.336H31.5a.5.5,0,0,0,.5-.5v-.748a.5.5,0,0,0-.5-.5M29.171,29a2.373,2.373,0,0,0,.118.285,2.368,2.368,0,0,0-3.171,1.078,2.22,2.22,0,0,0-.118.285,2.369,2.369,0,0,0-3-1.481,2.516,2.516,0,0,0-.285.118A2.367,2.367,0,0,0,21.348,26a2.369,2.369,0,0,0,1.48-3,2.344,2.344,0,0,0-.118-.285,2.37,2.37,0,0,0,3.172-1.077A2.516,2.516,0,0,0,26,21.348a2.367,2.367,0,0,0,3,1.48,2.28,2.28,0,0,0,.285-.118,2.37,2.37,0,0,0,1.077,3.172,2.457,2.457,0,0,0,.286.118,2.367,2.367,0,0,0-1.481,3" fill="#2E294E"></path>
<path id="Path_81" data-name="Path 81" d="M27.5,26A1.5,1.5,0,1,0,26,27.5,1.5,1.5,0,0,0,27.5,26" fill="#2E294E"></path>
<path id="Path_82" data-name="Path 82" d="M16,0A46.43,46.43,0,0,1,0,8.4v2a3.451,3.451,0,0,0,5.333,2.133,3.452,3.452,0,0,0,5.333,2.134A3.453,3.453,0,0,0,16,16.8a3.451,3.451,0,0,0,5.333-2.133,3.451,3.451,0,0,0,5.333-2.134A3.454,3.454,0,0,0,32,10.4v-2A46.421,46.421,0,0,1,16,0M31.021,10.194a2.452,2.452,0,0,1-3.788,1.515,1,1,0,0,0-1.545.618A2.453,2.453,0,0,1,21.9,13.843a1,1,0,0,0-1.545.618A2.451,2.451,0,0,1,16,15.434a2.452,2.452,0,0,1-4.355-.973,1,1,0,0,0-1.545-.618,2.454,2.454,0,0,1-3.789-1.516,1,1,0,0,0-1.184-.772,1.015,1.015,0,0,0-.361.154A2.451,2.451,0,0,1,.978,10.194V9.148A47.458,47.458,0,0,0,16,1.277,47.442,47.442,0,0,0,31.021,9.148Z" fill="#2E294E"></path>
</svg>