<svg xmlns="http://www.w3.org/2000/svg" width="30" height="30" viewBox="0 0 30 30">
<g id="Group_23747" data-name="Group 23747" transform="translate(1894 3457)">
<rect id="Rectangle_17196" data-name="Rectangle 17196" width="30" height="30" transform="translate(-1894 -3457)" fill="none"></rect>
<g id="Group_23746" data-name="Group 23746" transform="translate(-1599.983 686.845)">
<path id="Path_26918" data-name="Path 26918" d="M2077.33,84.3v.4q0,3.482,0,6.963a1.069,1.069,0,0,1-.7,1.137,1.082,1.082,0,0,1-1.236-.336c-.411-.424-.836-.834-1.273-1.268-.4.4-.806.792-1.206,1.191a1.126,1.126,0,0,1-1.887-.009c-.392-.393-.791-.78-1.208-1.192-.46.464-.9.934-1.371,1.375a1.071,1.071,0,0,1-1.789-.482,1.63,1.63,0,0,1-.036-.43q0-3.465,0-6.93V84.3h-.363q-2.409,0-4.819,0a2.166,2.166,0,0,0-2.317,2.325q0,10.529,0,21.058a2.17,2.17,0,0,0,2.343,2.333q4.183,0,8.366,0a1.07,1.07,0,0,1,.3,2.1,1.345,1.345,0,0,1-.363.038c-2.867,0-5.734.008-8.6,0a4.261,4.261,0,0,1-4.181-4.194q-.008-10.8,0-21.593a4.254,4.254,0,0,1,4.2-4.2q10.792-.007,21.584,0a4.259,4.259,0,0,1,4.192,4.182c.008,2.868,0,5.736,0,8.6a1.071,1.071,0,1,1-2.138,0q0-4.134,0-8.269a2.177,2.177,0,0,0-2.365-2.378h-5.133m-2.163,4.811V84.324h-6.387v4.842c.063-.051.1-.074.125-.1.709-.676,1.2-.671,1.884.017.392.392.789.78,1.194,1.179.459-.458.909-.9,1.357-1.353a.991.991,0,0,1,1.1-.271,3.98,3.98,0,0,1,.726.472" transform="translate(-2351 -4226)" fill="#2E294E"></path>
<path id="Path_26919" data-name="Path 26919" d="M2276.429,310.26a8.566,8.566,0,1,1,8.554,8.574,8.552,8.552,0,0,1-8.554-8.574m14.992,0a6.426,6.426,0,1,0-6.388,6.431,6.451,6.451,0,0,0,6.388-6.431" transform="translate(-2557.593 -4432.681)" fill="#2E294E"></path>
<path id="Path_26920" data-name="Path 26920" d="M2352.663,396.855c.43-.437.848-.866,1.271-1.292q1.072-1.08,2.148-2.155a1.083,1.083,0,1,1,1.531,1.519q-2.064,2.073-4.137,4.139a1.071,1.071,0,0,1-1.672,0q-1-.99-1.986-1.986a1.085,1.085,0,1,1,1.538-1.513l1.305,1.29" transform="translate(-2626.31 -4518.65)" fill="#2E294E"></path>
</g>
</g>
</svg>