<svg xmlns="http://www.w3.org/2000/svg" width="30" height="30" viewBox="0 0 30 30">
<g id="Group_23745" data-name="Group 23745" transform="translate(1901 3455)">
<rect id="Rectangle_17195" data-name="Rectangle 17195" width="30" height="30" transform="translate(-1901 -3455)" fill="none"></rect>
<g id="Group_23744" data-name="Group 23744" transform="translate(-867.487 654.098)">
<path id="Path_26911" data-name="Path 26911" d="M1352.884,172.262h-4.464a.88.88,0,1,0,0,1.761h4.464a.88.88,0,1,0,0-1.761" transform="translate(-2379.291 -4277.175)" fill="#2E294E"></path>
<path id="Path_26912" data-name="Path 26912" d="M1352.884,292.455h-4.464a.88.88,0,1,0,0,1.761h4.464a.88.88,0,1,0,0-1.761" transform="translate(-2379.291 -4390.326)" fill="#2E294E"></path>
<path id="Path_26913" data-name="Path 26913" d="M1322.832,232.366h-4.464a.88.88,0,1,0,0,1.761h4.464a.88.88,0,0,0,0-1.761" transform="translate(-2351 -4333.757)" fill="#2E294E"></path>
<path id="Path_26914" data-name="Path 26914" d="M1531.056,222.736h-5.341v-3.52a1.763,1.763,0,0,0-3-1.244l-7.04,7.04a1.76,1.76,0,0,0,0,2.489h0l4.035,4.035-4.918,4.918a1.761,1.761,0,0,0,2.49,2.49l6.162-6.163a1.76,1.76,0,0,0,0-2.489h0l-4.035-4.035,2.792-2.792v1.03a1.761,1.761,0,0,0,1.761,1.761h7.1a1.761,1.761,0,0,0,0-3.52Z" transform="translate(-2536.278 -4319.726)" fill="#2E294E"></path>
<path id="Path_26915" data-name="Path 26915" d="M1475.968,150.029a1.761,1.761,0,0,0-2.222.22l-4.842,4.842a1.761,1.761,0,0,0,2.441,2.538l.049-.049,3.821-3.821,1.288.927,1.717-1.717a3.5,3.5,0,0,1,1-.687Z" transform="translate(-2493.036 -4255.966)" fill="#2E294E"></path>
<path id="Path_26916" data-name="Path 26916" d="M1344.676,384.535a3.489,3.489,0,0,1-.9-1.589l-9.3,9.3a1.761,1.761,0,0,0,2.49,2.49l8.955-8.954Z" transform="translate(-2366.531 -4475.515)" fill="#2E294E"></path>
<path id="Path_26917" data-name="Path 26917" d="M1690.437,117.9a2.5,2.5,0,1,1-2.5,2.5,2.5,2.5,0,0,1,2.5-2.5" transform="translate(-2699.74 -4226)" fill="#2E294E"></path>
</g>
</g>
</svg>