<svg id="Group_30" data-name="Group 30" xmlns="http://www.w3.org/2000/svg" width="31.999" height="32" viewBox="0 0 31.999 32">
<path id="Path_83" data-name="Path 83" d="M96.2,30.593a.5.5,0,0,1,.314-.464L103.6,27.3a.484.484,0,0,1,.185-.036.5.5,0,0,1,.185.965l-7.087,2.831a.5.5,0,0,1-.686-.464" transform="translate(-92.946 -10)" fill="#2E294E"></path>
<path id="Path_84" data-name="Path 84" d="M96.2,33.537a.5.5,0,0,1,.314-.464l4.615-1.844a.493.493,0,0,1,.186-.036.5.5,0,0,1,.186.964L96.887,34a.5.5,0,0,1-.686-.464" transform="translate(-92.946 -10)" fill="#2E294E"></path>
<path id="Path_85" data-name="Path 85" d="M117.171,10a2.017,2.017,0,0,0-.744.143L94.205,19.021a2,2,0,0,0-1.259,1.857V40a2,2,0,0,0,2.746,1.857l15.795-6.31a.5.5,0,1,0-.372-.929L95.32,40.928a.985.985,0,0,1-.372.072,1,1,0,0,1-1-1V28.7l24.225-9.679v8.306a.5.5,0,0,0,1,0V12a2,2,0,0,0-2-2m1,5.82L93.947,25.5v-4.62a1,1,0,0,1,.63-.928L116.8,11.071a1,1,0,0,1,1.373.929Z" transform="translate(-92.946 -10)" fill="#2E294E"></path>
<path id="Path_86" data-name="Path 86" d="M123.686,32.181,115.1,28.752a4.007,4.007,0,0,0-7.193-1.8l2.671,1.067a1,1,0,1,1-.744,1.857l-2.671-1.067a4.005,4.005,0,0,0,6.449,3.654L122.2,35.9a2,2,0,1,0,1.487-3.714m.186,2.228a1,1,0,0,1-1.3.557L113.4,31.3a3.006,3.006,0,0,1-5.08-.952l1.149.459a2,2,0,1,0,1.488-3.714l-1.149-.459a3,3,0,0,1,4.336,2.809l9.173,3.665a1,1,0,0,1,.558,1.3" transform="translate(-92.946 -10)" fill="#2E294E"></path>
</svg>