<svg xmlns="http://www.w3.org/2000/svg" width="64" height="64.001" viewBox="0 0 64 64.001">
<g id="Group_26" data-name="Group 26" transform="translate(-1571.385 1123.29)">
<line id="Line_5" data-name="Line 5" transform="translate(1572.385 -1123.29)" fill="none" stroke="red" stroke-linecap="round" stroke-linejoin="round" stroke-width="0.142"></line>
<path id="Path_67" data-name="Path 67" d="M214.771,65.71a2,2,0,0,1-2-2v-59a1,1,0,0,0-2,0v59a4,4,0,0,0,4,4h59a1,1,0,0,0,0-2Z" transform="translate(1360.615 -1127)" fill="#FFFFFF"></path>
<line id="Line_6" data-name="Line 6" y1="0.136" x2="0.136" transform="translate(1586.533 -1087.117)" fill="none" stroke="red" stroke-linecap="round" stroke-linejoin="round" stroke-width="0.142"></line>
<path id="Path_68" data-name="Path 68" d="M264.6,10.027a3,3,0,0,0-4,4L247.536,27.1a2.994,2.994,0,0,0-2.594,0l-6.584-6.584a3,3,0,1,0-5.414,0L221.528,31.927a3,3,0,1,0,1.412,1.418l11.418-11.418a3,3,0,0,0,2.586,0l6.586,6.586a3,3,0,1,0,5.418,0l13.072-13.07a3,3,0,0,0,2.584-5.416M220.23,35.633a1,1,0,1,1,1-1,1,1,0,0,1-1,1m15.42-15.414a1,1,0,1,1,1-1,1,1,0,0,1-1,1M246.238,30.8a1,1,0,1,1,1-1,1,1,0,0,1-1,1m17.074-17.066a1,1,0,1,1,1-1,1,1,0,0,1-1,1" transform="translate(1367.074 -1120.976)" fill="#FFFFFF"></path>
</g></svg>