<svg id="Group_22725" data-name="Group 22725" xmlns="http://www.w3.org/2000/svg" width="48" height="48" viewBox="0 0 48 48">
<path id="Path_108" d="M24,28.5A1.538,1.538,0,0,1,25.5,30v6a1.5,1.5,0,0,1-3,0V30A1.538,1.538,0,0,1,24,28.5" fill="#2E294E"></path>
<path id="Path_109" d="M36,21H33V43.5A1.538,1.538,0,0,1,31.5,45h-15A1.538,1.538,0,0,1,15,43.5V21H12V43.5A4.481,4.481,0,0,0,16.5,48h15A4.481,4.481,0,0,0,36,43.5Z" fill="#2E294E"></path>
<path id="Path_110" d="M43.5,0H4.5A4.481,4.481,0,0,0,0,4.5v9A4.481,4.481,0,0,0,4.5,18h39A4.481,4.481,0,0,0,48,13.5v-9A4.481,4.481,0,0,0,43.5,0M45,13.5A1.538,1.538,0,0,1,43.5,15H4.5A1.538,1.538,0,0,1,3,13.5v-9A1.538,1.538,0,0,1,4.5,3h39A1.538,1.538,0,0,1,45,4.5Z" fill="#2E294E"></path>
<path id="Path_111" d="M28.5,21h-9a4.5,4.5,0,0,0,9,0" fill="#2E294E"></path>
</svg>